<?xml version="1.0" encoding="UTF-8" standalone="no"?>
<!-- Created with Inkscape (http://www.inkscape.org/) -->

<svg
   width="130.0889mm"
   height="27.362085mm"
   viewBox="0 0 130.0889 27.362085"
   version="1.1"
   id="svg1"
   inkscape:version="1.4.2 (ebf0e940, 2025-05-08)"
   sodipodi:docname="FTP_Logo_Full.svg"
   xmlns:inkscape="http://www.inkscape.org/namespaces/inkscape"
   xmlns:sodipodi="http://sodipodi.sourceforge.net/DTD/sodipodi-0.dtd"
   xmlns="http://www.w3.org/2000/svg"
   xmlns:svg="http://www.w3.org/2000/svg">
  <sodipodi:namedview
     id="namedview1"
     pagecolor="#ffffff"
     bordercolor="#000000"
     borderopacity="0.25"
     inkscape:showpageshadow="2"
     inkscape:pageopacity="0.0"
     inkscape:pagecheckerboard="0"
     inkscape:deskcolor="#d1d1d1"
     inkscape:document-units="mm"
     inkscape:zoom="0.47887688"
     inkscape:cx="285.04195"
     inkscape:cy="143.04303"
     inkscape:window-width="1440"
     inkscape:window-height="870"
     inkscape:window-x="0"
     inkscape:window-y="34"
     inkscape:window-maximized="0"
     inkscape:current-layer="layer1" />
  <defs
     id="defs1" />
  <g
     inkscape:label="Layer 1"
     inkscape:groupmode="layer"
     id="layer1"
     transform="translate(-36.444909,-132.52233)">
    <path
       style="font-weight:bold;font-size:16.7569px;line-height:0.9;font-family:'Gill Sans';-inkscape-font-specification:'Gill Sans Bold';text-align:end;text-anchor:end;fill:#003366;stroke-width:1.40832"
       d="m 46.56776,146.51177 -3.855597,-0.0464 0.01365,3.78748 -2.825754,-0.008 -0.0035,-9.39083 5.789213,0.0718 -0.0048,1.88966 -2.97406,-0.0517 9.11e-4,1.81552 3.851649,0.0508 z m 6.163574,-3.60533 -2.143284,-0.0213 0.05536,7.4289 -2.819752,-0.007 -0.05168,-7.41187 -2.0935,-0.076 0.0047,-1.8933 7.054327,0.0317 z m 8.208353,0.91351 c 0,-0.34778 -0.06104,0.68916 -0.183629,1.0242 -0.118036,0.33048 -0.311137,0.64118 -0.579437,0.93226 -0.268309,0.28657 -0.632398,0.52214 -1.092642,0.70716 -0.455697,0.18045 -0.994011,0.27411 -1.615276,0.28163 l -1.877738,0.0227 0.02748,3.49426 -2.852299,0.021 -0.04401,-9.34592 4.741236,-0.0561 c 0.621804,-0.007 1.160708,0.0761 1.616968,0.25198 0.460827,0.17585 0.82541,0.40742 1.094156,0.69427 0.268744,0.28684 0.462208,0.59933 0.580585,0.93726 0.122933,0.33788 0.184611,1.38758 0.184611,1.03529 z m -2.917252,0.0465 c -4.24e-4,-0.44689 -0.135247,-0.75024 -0.405084,-0.90934 -0.265262,-0.16369 -0.743337,-0.2407 -1.434154,-0.23142 l -0.603818,0.008 0.0028,2.26081 0.617352,-0.008 c 0.475649,-0.007 0.841486,-0.0404 1.097453,-0.10245 0.255967,-0.062 0.440907,-0.17255 0.554925,-0.33186 0.114018,-0.15932 0.17079,-0.38784 0.170506,-0.68577 z"
       id="text1"
       aria-label="FTP"
       sodipodi:nodetypes="ccccccccccccccccccccscccsccccscscsscsccsssscc" />
    <text
       xml:space="preserve"
       style="font-style:normal;font-variant:normal;font-weight:normal;font-stretch:normal;font-size:16.7569px;line-height:0.9;font-family:Segoe;-inkscape-font-specification:Segoe;text-align:end;writing-mode:lr-tb;direction:ltr;text-anchor:end;fill:#003366;fill-opacity:1;stroke:none;stroke-width:1.7;stroke-dasharray:none;stroke-opacity:1"
       x="65.08419"
       y="143.94598"
       id="text2"><tspan
         sodipodi:role="line"
         id="tspan2"
         style="font-style:normal;font-variant:normal;font-weight:bold;font-stretch:normal;font-family:'Gill Sans';-inkscape-font-specification:'Gill Sans Bold';text-align:start;text-anchor:start;stroke:none;stroke-width:1.7"
         x="65.08419"
         y="143.94598">Future Tech</tspan><tspan
         sodipodi:role="line"
         style="font-style:normal;font-variant:normal;font-weight:bold;font-stretch:normal;font-family:'Gill Sans';-inkscape-font-specification:'Gill Sans Bold';text-align:start;text-anchor:start;stroke:none;stroke-width:1.7"
         x="65.08419"
         y="159.73714"
         id="tspan3">Partners</tspan></text>
    <rect
       style="fill:none;fill-opacity:1;stroke:#003366;stroke-width:1.92143;stroke-dasharray:none;stroke-opacity:1"
       id="rect3"
       width="25.207277"
       height="25.207277"
       x="37.405624"
       y="133.48305" />
  </g>
</svg>
